<?xml version="1.0" standalone="no"?>
<!DOCTYPE svg PUBLIC "-//W3C//DTD SVG 20010904//EN"
 "http://www.w3.org/TR/2001/REC-SVG-20010904/DTD/svg10.dtd">
<svg version="1.0" xmlns="http://www.w3.org/2000/svg"
 width="256.000000pt" height="256.000000pt" viewBox="0 0 256.000000 256.000000"
 preserveAspectRatio="xMidYMid meet">
<metadata>
Created by potrace 1.16, written by Peter Selinger 2001-2019
</metadata>
<g transform="translate(0.000000,256.000000) scale(0.100000,-0.100000)"
fill="#fff" stroke="none">
<path d="M455 2544 c-226 -47 -394 -217 -440 -446 -23 -115 -23 -1521 0 -1636
47 -232 215 -400 447 -447 115 -23 1521 -23 1636 0 232 47 400 215 447 447 23
115 23 1521 0 1636 -47 232 -215 400 -447 447 -111 22 -1536 21 -1643 -1z
m1132 -370 c82 -18 179 -66 250 -123 205 -165 274 -502 150 -735 -32 -61 -101
-135 -278 -301 -104 -97 -133 -150 -132 -240 1 -170 138 -275 358 -275 102 0
124 -11 86 -41 -63 -51 -240 -90 -408 -90 -525 1 -998 352 -1079 801 -56 311
75 669 309 846 77 58 219 126 312 149 130 33 312 36 432 9z"/>
<path d="M1250 1783 c-27 -10 -65 -37 -97 -68 -158 -159 -67 -395 151 -395
150 0 270 116 271 261 0 56 -4 73 -30 114 -57 93 -178 129 -295 88z"/>
</g>
</svg>
