<?xml version="1.0" encoding="iso-8859-1"?>
<!-- Generator: Adobe Illustrator 19.0.0, SVG Export Plug-In . SVG Version: 6.00 Build 0)  -->
<svg version="1.1" id="Layer_1" xmlns="http://www.w3.org/2000/svg" xmlns:xlink="http://www.w3.org/1999/xlink" x="0px" y="0px"
	 viewBox="0 0 512 512" style="enable-background:new 0 0 512 512;" fill="#fff" xml:space="preserve">
<g>
	<g>
		<path d="M256,84.293c-72.301,0-131.122,58.821-131.122,131.122S183.699,346.537,256,346.537c24.998,0,49.313-7.066,70.318-20.434
			l-20.114-31.605c-14.984,9.536-32.343,14.576-50.203,14.576c-51.643,0-93.659-42.015-93.659-93.659s42.015-93.659,93.659-93.659
			s93.659,42.015,93.659,93.659c0,10.329-8.403,18.732-18.732,18.732s-18.732-8.403-18.732-18.732
			c0-30.986-25.209-56.195-56.195-56.195s-56.195,25.209-56.195,56.195c0,30.986,25.209,56.195,56.195,56.195
			c14.382,0,27.513-5.437,37.463-14.355c9.95,8.919,23.081,14.355,37.463,14.355c30.986,0,56.195-25.209,56.195-56.195
			C387.122,143.114,328.301,84.293,256,84.293z M256,234.146c-10.329,0-18.732-8.403-18.732-18.732
			c0-10.329,8.403-18.732,18.732-18.732s18.732,8.403,18.732,18.732C274.732,225.743,266.329,234.146,256,234.146z"/>
	</g>
</g>
<g>
	<g>
		<path d="M443.317,21.854H68.683C30.811,21.854,0,52.665,0,90.537v399.61h37.463c0-44.758,36.413-81.171,81.171-81.171h324.683
			c37.872,0,68.683-30.811,68.683-68.683V90.537C512,52.665,481.189,21.854,443.317,21.854z M474.537,340.293
			c0,17.214-14.005,31.22-31.219,31.22H118.634c-31.371,0-59.934,12.238-81.171,32.191V90.537c0-17.214,14.005-31.219,31.219-31.219
			h374.634c17.214,0,31.219,14.005,31.219,31.219V340.293z"/>
	</g>
</g>
<g>
</g>
<g>
</g>
<g>
</g>
<g>
</g>
<g>
</g>
<g>
</g>
<g>
</g>
<g>
</g>
<g>
</g>
<g>
</g>
<g>
</g>
<g>
</g>
<g>
</g>
<g>
</g>
<g>
</g>
</svg>
